# xmcd
#
# Track frame offsets:
#	150
#	15157
#	33561
#	51911
#	67309
#	81734
#	96185
#	111406
#	125768
#	137303
#
# Disc length: 2054 seconds
#
# Revision: 1
# Processed by: cddbd v1.5.2PL0 Copyright (c) Steve Scherf et al.
# Submitted via: EZCDAudioConverter 3.1.0.1
#
DISCID=8f08040a
DTITLE=Rudolfs Plepis - Viss bus ka agrak
DYEAR=2005
DGENRE=Country
TTITLE0=Nepazistama
TTITLE1=Vardi sapni
TTITLE2=Mila nac
TTITLE3=Kadreiz
TTITLE4=Vel vienu reizi!
TTITLE5=Reiz dzivoja pele(Alus sis alus!)
TTITLE6=Ligosim laukos
TTITLE7=Viss bus ka agrak
TTITLE8=Saki - viens,divi,tris!
TTITLE9=Varaviksne
EXTD=
EXTT0=
EXTT1=
EXTT2=
EXTT3=
EXTT4=
EXTT5=
EXTT6=
EXTT7=
EXTT8=
EXTT9=
PLAYORDER=
